<?xml version="1.0" encoding="UTF-8"?>
<svg id="Layer_2" data-name="Layer 2" xmlns="http://www.w3.org/2000/svg" viewBox="0 0 884.22 884.22">
  <g id="Layer_1-2" data-name="Layer 1">
    <g>
      <path d="M665.62,430.73l-88.89,103.48-57.67,110.04c-9.43,18.02-20.22,35.28-32.24,51.66l-10.49,29.22c-3.55,9.89-12.94,16.49-23.45,16.49h-21.55c-10.51,0-19.9-6.6-23.45-16.49l-10.49-29.22c-12.02-16.38-22.81-33.64-32.24-51.66l-57.67-110.04-88.89-103.48c-7.56-8.8-6.19-22.13,3.02-29.21l76.51-58.76-13.3-38.58c-3.23-9.32-5.23-19.03-6-28.86l-9.74-126.73,113.22,122.5,59.81-3.83,59.8,3.83,113.22-122.5-9.74,126.73c-.77,9.83-2.77,19.54-6,28.86l-13.3,38.58,76.51,58.76c9.21,7.08,10.58,20.41,3.02,29.21Z"/>
      <path d="M442.11,884.22c-59.67,0-117.57-11.69-172.1-34.75-52.65-22.27-99.93-54.14-140.52-94.74-40.59-40.59-72.47-87.87-94.74-140.52C11.69,559.68,0,501.78,0,442.11s11.69-117.57,34.75-172.1c22.27-52.65,54.14-99.93,94.74-140.52s87.87-72.47,140.52-94.74C324.53,11.69,382.44,0,442.11,0s117.57,11.69,172.1,34.75c52.65,22.27,99.93,54.14,140.52,94.74s72.47,87.87,94.74,140.52c23.06,54.52,34.75,112.43,34.75,172.1s-11.69,117.57-34.75,172.1c-22.27,52.65-54.14,99.93-94.74,140.52-40.59,40.59-87.87,72.47-140.52,94.74-54.52,23.06-112.42,34.75-172.1,34.75ZM442.11,55c-213.45,0-387.11,173.66-387.11,387.11s173.66,387.11,387.11,387.11,387.11-173.66,387.11-387.11S655.56,55,442.11,55h0Z"/>
    </g>
  </g>
</svg>