<?xml version="1.0" encoding="UTF-8"?>
<svg id="Layer_2" data-name="Layer 2" xmlns="http://www.w3.org/2000/svg" viewBox="0 0 884.22 884.22">
  <defs>
    <style>
      .cls-1 {
        fill: #fff;
      }
    </style>
  </defs>
  <g id="Layer_1-2" data-name="Layer 1">
    <g>
      <path class="cls-1" d="M662.6,401.52l-76.51-58.76,13.3-38.57c3.23-9.32,5.24-19.03,6-28.86l9.75-126.73-113.22,122.5-59.81-3.83-59.81,3.83-113.22-122.5,9.75,126.73c.76,9.83,2.77,19.54,6,28.86l13.3,38.57-76.51,58.76c-9.21,7.08-10.58,20.41-3.02,29.22l88.88,103.48,57.68,110.04c9.43,18.02,20.22,35.27,32.24,51.66l10.49,29.22c3.55,9.89,12.94,16.49,23.45,16.49h21.55c10.51,0,19.9-6.6,23.45-16.49l10.49-29.22c12.02-16.38,22.81-33.64,32.24-51.66l57.68-110.04,88.88-103.48c7.56-8.8,6.2-22.14-3.02-29.22ZM350,513.96c-12.75-28.65-14.33-54.12-14.33-54.12,50.95,28.65,60.5,74.82,65.27,108.25-15.92-31.85-38.22-25.47-50.95-54.13ZM534.22,513.96c-12.73,28.65-35.02,22.28-50.95,54.13,4.78-33.43,14.33-79.6,65.27-108.25,0,0-1.58,25.47-14.33,54.12Z"/>
      <path class="cls-1" d="M442.11,884.22c-59.67,0-117.57-11.69-172.1-34.75-52.65-22.27-99.93-54.14-140.52-94.74-40.59-40.59-72.47-87.87-94.74-140.52C11.69,559.68,0,501.78,0,442.11s11.69-117.57,34.75-172.1c22.27-52.65,54.14-99.93,94.74-140.52,40.59-40.59,87.87-72.47,140.52-94.74C324.53,11.69,382.44,0,442.11,0s117.57,11.69,172.1,34.75c52.65,22.27,99.93,54.14,140.52,94.74s72.47,87.87,94.74,140.52c23.06,54.52,34.75,112.43,34.75,172.1s-11.69,117.57-34.75,172.1c-22.27,52.65-54.14,99.93-94.74,140.52s-87.87,72.47-140.52,94.74c-54.52,23.06-112.43,34.75-172.1,34.75ZM442.11,55c-213.45,0-387.11,173.66-387.11,387.11s173.66,387.11,387.11,387.11,387.11-173.66,387.11-387.11S655.56,55,442.11,55h0Z"/>
    </g>
  </g>
</svg>