<?xml version="1.0" encoding="UTF-8"?>
<svg id="Layer_2" data-name="Layer 2" xmlns="http://www.w3.org/2000/svg" viewBox="0 0 2822.45 1059.79">
  <defs>
    <style>
      .cls-1 {
        fill: #fff;
      }
    </style>
  </defs>
  <g id="Layer_1-2" data-name="Layer 1">
    <g>
      <path class="cls-1" d="M836.85,671.03c3.98,55.42,58.75,81.75,121.06,81.75,45.17,0,82.18-6.06,118.2-18.21l18.02,90.36c-44.44,18.12-98.05,27.16-155.63,27.16-145.51,0-229.07-84.74-229.07-218.61,0-109.15,68.07-229.84,216.52-229.84,139.22,0,191.8,108.22,191.8,214.5,0,23.27-2.42,43-4.78,52.88h-276.13ZM993.63,579.54c.23-32.15-14.13-87.07-74.9-87.07-56.43,0-79.28,51.54-82.98,87.07h157.87Z"/>
      <path class="cls-1" d="M1117.75,766.2l135.34-169.11c24.4-28.58,43.66-50.14,68-75.96v-1.93h-188.36v-105.91h351.52l-.14,80.39-129.45,162.62c-23.4,27.75-45.67,54.71-70.07,78.73v1.93h206.29v105.91h-373.12v-76.67Z"/>
      <path class="cls-1" d="M1638.71,413.3l64.16,211.17c7.3,25.17,15.64,57.27,21.42,79.76h2.79c5.96-23.17,12.78-55.04,19.06-79.97l52.94-210.95h142.48l-99.56,282.75c-61.63,170.57-102.76,238.64-151.25,281.63-45.98,40.29-95.17,55.12-128.57,58.76l-28.61-112.58c17.04-3.23,37.63-11.01,58.1-22.73,20.37-10.76,42.57-32.2,55.03-53.55,4.55-6.75,7.47-13.52,7.47-19.25,0-4.99-1.14-11.43-5.91-22.06l-157.38-392.97h147.84Z"/>
      <path d="M2129.27,290.79v122.51h96.14v98.5h-96.14v155.64c0,51.81,12.87,75.69,52.7,75.69,17.22,0,30.51-1.81,39.7-3.99l1.07,101.47c-17.24,6.22-49.13,11.48-86.52,11.48-43.18,0-79.18-15.02-100.66-37.28-24.8-25.45-36.92-66.31-36.92-127.31v-175.7h-57.07v-98.5h57.07v-92.3l130.63-30.21Z"/>
      <path class="cls-1" d="M2649.48,219.75v623.12h-120.83v-62.91h-1.85c-27.04,48.17-79.06,72.56-134.46,72.56-101.36,0-183.36-87.06-183.36-220.57-.66-144.23,89.94-228.31,192.21-228.31,53.07,0,93.74,18.88,112.95,48.55h1.75v-232.45h133.57ZM2515.92,595.62c0-7.48-.28-16.56-1.75-24.21-7.61-35.84-36.73-65.28-77.42-65.28-61.21,0-92.19,54.26-92.19,121.95,0,72.29,35.63,117.96,91.26,117.96,37.97,0,69.14-26.31,77.27-63.99,2.21-9.19,2.83-19.52,2.83-30.21v-56.22Z"/>
      <path class="cls-1" d="M2688.71,219.75h133.74v623.12h-133.74V219.75Z"/>
      <g>
        <path class="cls-1" d="M223.07,989.55c-46.16-1.64-91.77-23.28-126.43-53.96-38.34-33.58-65.52-79.21-79.87-127.99-14.91-47.55-20.03-97.46-14.76-147.49,6.98-66.88,33.4-131.06,72.89-185.23,14.07-19.09,29.63-37.08,46.54-53.68l16.21,210.75c.94,12.11,3.42,24.03,7.34,35.36l4.05,11.77-50.65,38.9c-11.65,8.96-19.19,22.46-20.7,37.07-1.5,14.6,3.13,29.37,12.7,40.52l79.46,92.51,51.38,98.05c.6,1.14,1.21,2.28,1.82,3.42Z"/>
        <path class="cls-1" d="M562.22,292.08c-13.64,46.07-42.53,90.42-80.86,120.44-21.09,16.89-43.98,29.8-67.97,41.01-18.82,8.74-39.34,17.64-59.79,26.38,3.17,1.16,6.25,2.45,9.26,3.85,15.77,7.44,32.37,21.92,30.75,40.88-2.24-12.42-12.61-20.7-23.89-24.65-20.15-6.7-41.78-5.05-62.46-.36-1.88.8-3.74,1.6-5.58,2.38-22.65,9.92-43.32,24.26-61.71,41.26l-115.51-124.98c33.63-32.42,72.47-59.32,115.47-78.41,16.79-7.82,47.38-21.62,64.48-29.39,4.57-2.07,9.61-4.27,14.88-6.59,1.4-1.16,2.94-2.2,4.62-3.1,42.53-23.7,80.33-73.34,74.36-124.59-2.17-18.11-10.83-35.46-25.6-47.03,8.73,3.94,16.79,9.94,23.49,17.41,19.45,22.61,25.17,51.49,22.35,80.33,2.91-5.89,5.55-11.95,7.96-18.15,21.93-60.6,30.44-144.59,13.16-208.76,8.16.87,16.14,3.01,23.77,5.97,38.71,15.65,68.17,48.76,86.88,85.46,31.42,61.73,31.64,134.9,11.94,200.65Z"/>
        <path class="cls-1" d="M526.93,745.77l-70.64-54.25,12.28-35.62c2.98-8.6,4.84-17.57,5.54-26.65l9-117.01-104.54,113.11-55.22-3.54-55.22,3.54-104.54-113.11,9,117.01c.7,9.08,2.56,18.05,5.54,26.65l12.28,35.62-70.64,54.25c-8.51,6.54-9.77,18.85-2.79,26.98l82.07,95.54,53.25,101.6c8.7,16.64,18.67,32.57,29.76,47.7l9.69,26.98c3.28,9.13,11.95,15.23,21.65,15.23h19.9c9.7,0,18.37-6.1,21.65-15.23l9.69-26.98c11.1-15.13,21.06-31.06,29.76-47.7l53.25-101.6,82.07-95.54c6.98-8.13,5.72-20.44-2.79-26.98ZM238.3,849.58c-11.77-26.45-13.23-49.97-13.23-49.97,47.04,26.45,55.86,69.08,60.27,99.95-14.7-29.4-35.29-23.52-47.04-49.97ZM408.39,849.58c-11.75,26.45-32.34,20.57-47.04,49.97,4.41-30.86,13.23-73.49,60.27-99.95,0,0-1.46,23.52-13.23,49.97Z"/>
      </g>
    </g>
  </g>
</svg>