<?xml version="1.0" encoding="UTF-8"?>
<svg id="Layer_2" data-name="Layer 2" xmlns="http://www.w3.org/2000/svg" viewBox="0 0 2113.02 816.69">
  <defs>
    <style>
      .ez-logo {
        fill: #fff;
      }
      .ez-logo-letter {
        fill: #000;
      }
    </style>
  </defs>
  <g id="Layer_1-2" data-name="Layer 1">
    <g>
      <path class="ez-logo" d="M127.42,451.28c3.98,55.42,58.75,81.75,121.06,81.75,45.17,0,82.18-6.06,118.2-18.21l18.02,90.36c-44.44,18.12-98.05,27.16-155.63,27.16C83.56,632.34,0,547.6,0,413.73c0-109.15,68.07-229.84,216.52-229.84,139.22,0,191.8,108.22,191.8,214.5,0,23.27-2.42,43-4.78,52.88H127.42ZM284.2,359.79c.23-32.15-14.13-87.07-74.9-87.07-56.43,0-79.28,51.54-82.98,87.07h157.87Z"/>
      <path class="ez-logo" d="M408.32,546.46l135.34-169.11c24.4-28.58,43.66-50.14,68-75.96v-1.93h-188.36v-105.91h351.52l-.14,80.39-129.45,162.62c-23.4,27.75-45.67,54.71-70.07,78.73v1.93h206.29v105.91h-373.12v-76.67Z"/>
      <path class="ez-logo" d="M929.28,193.55l64.16,211.17c7.3,25.17,15.64,57.27,21.42,79.76h2.79c5.96-23.17,12.78-55.04,19.06-79.97l52.94-210.95h142.48l-99.56,282.75c-61.63,170.57-102.76,238.64-151.25,281.63-45.98,40.29-95.17,55.12-128.57,58.76l-28.61-112.58c17.04-3.23,37.63-11.01,58.1-22.73,20.37-10.76,42.57-32.2,55.03-53.55,4.55-6.75,7.47-13.52,7.47-19.25,0-4.99-1.14-11.43-5.91-22.06l-157.38-392.97h147.84Z"/>
      <path class="ez-logo-letter" d="M1419.83,71.04v122.51h96.14v98.5h-96.14v155.64c0,51.81,12.87,75.69,52.7,75.69,17.22,0,30.51-1.81,39.7-3.99l1.07,101.47c-17.24,6.22-49.13,11.48-86.52,11.48-43.18,0-79.18-15.02-100.66-37.28-24.8-25.45-36.92-66.31-36.92-127.31v-175.7h-57.07v-98.5h57.07v-92.3l130.63-30.21Z"/>
      <path class="ez-logo" d="M1940.05,0v623.12h-120.83v-62.91h-1.85c-27.04,48.17-79.06,72.56-134.46,72.56-101.36,0-183.36-87.06-183.36-220.57-.66-144.23,89.94-228.31,192.21-228.31,53.07,0,93.74,18.88,112.95,48.55h1.75V0h133.57ZM1806.48,375.88c0-7.48-.28-16.56-1.75-24.21-7.61-35.84-36.73-65.28-77.42-65.28-61.21,0-92.19,54.26-92.19,121.95,0,72.29,35.63,117.96,91.26,117.96,37.97,0,69.14-26.31,77.27-63.99,2.21-9.19,2.83-19.52,2.83-30.21v-56.22Z"/>
      <path class="ez-logo" d="M1979.28,0h133.74v623.12h-133.74V0Z"/>
    </g>
  </g>
</svg>