<?xml version="1.0" encoding="UTF-8"?>
<svg id="Layer_2" data-name="Layer 2" xmlns="http://www.w3.org/2000/svg" viewBox="0 0 575.69 1059.79">
  <defs>
    <style>
      .cls-1 {
        fill: #fff;
      }
    </style>
  </defs>
  <g id="Layer_1-2" data-name="Layer 1">
    <g>
      <path class="cls-1" d="M223.07,989.55c-46.16-1.64-91.77-23.28-126.43-53.96-38.34-33.58-65.52-79.21-79.87-127.99-14.91-47.55-20.03-97.46-14.76-147.49,6.98-66.88,33.4-131.06,72.89-185.23,14.07-19.09,29.63-37.08,46.54-53.68l16.21,210.75c.94,12.11,3.42,24.03,7.34,35.36l4.05,11.77-50.65,38.9c-11.65,8.96-19.19,22.46-20.7,37.07-1.5,14.6,3.13,29.37,12.7,40.52l79.46,92.51,51.38,98.05c.6,1.14,1.21,2.28,1.82,3.42Z"/>
      <path class="cls-1" d="M562.22,292.08c-13.64,46.07-42.53,90.42-80.86,120.44-21.09,16.89-43.98,29.8-67.97,41.01-18.82,8.74-39.34,17.64-59.79,26.38,3.17,1.16,6.25,2.45,9.26,3.85,15.77,7.44,32.37,21.92,30.75,40.88-2.24-12.42-12.61-20.7-23.89-24.65-20.15-6.7-41.78-5.05-62.46-.36-1.88.8-3.74,1.6-5.58,2.38-22.65,9.92-43.32,24.26-61.71,41.26l-115.51-124.98c33.63-32.42,72.47-59.32,115.47-78.41,16.79-7.82,47.38-21.62,64.48-29.39,4.57-2.07,9.61-4.27,14.88-6.59,1.4-1.16,2.94-2.2,4.62-3.1,42.53-23.7,80.33-73.34,74.36-124.59-2.17-18.11-10.83-35.46-25.6-47.03,8.73,3.94,16.79,9.94,23.49,17.41,19.45,22.61,25.17,51.49,22.35,80.33,2.91-5.89,5.55-11.95,7.96-18.15,21.93-60.6,30.44-144.59,13.16-208.76,8.16.87,16.14,3.01,23.77,5.97,38.71,15.65,68.17,48.76,86.88,85.46,31.42,61.73,31.64,134.9,11.94,200.65Z"/>
      <path class="cls-1" d="M526.93,745.77l-70.64-54.25,12.28-35.62c2.98-8.6,4.84-17.57,5.54-26.65l9-117.01-104.54,113.11-55.22-3.54-55.22,3.54-104.54-113.11,9,117.01c.7,9.08,2.56,18.05,5.54,26.65l12.28,35.62-70.64,54.25c-8.51,6.54-9.77,18.85-2.79,26.98l82.07,95.54,53.25,101.6c8.7,16.64,18.67,32.57,29.76,47.7l9.69,26.98c3.28,9.13,11.95,15.23,21.65,15.23h19.9c9.7,0,18.37-6.1,21.65-15.23l9.69-26.98c11.1-15.13,21.06-31.06,29.76-47.7l53.25-101.6,82.07-95.54c6.98-8.13,5.72-20.44-2.79-26.98ZM238.3,849.58c-11.77-26.45-13.23-49.97-13.23-49.97,47.04,26.45,55.86,69.08,60.27,99.95-14.7-29.4-35.29-23.52-47.04-49.97ZM408.39,849.58c-11.75,26.45-32.34,20.57-47.04,49.97,4.41-30.86,13.23-73.49,60.27-99.95,0,0-1.46,23.52-13.23,49.97Z"/>
    </g>
  </g>
</svg>